<?xml version="1.0" encoding="UTF-8" standalone="no"?>
<svg
   xmlns:dc="http://purl.org/dc/elements/1.1/"
   xmlns:cc="http://creativecommons.org/ns#"
   xmlns:rdf="http://www.w3.org/1999/02/22-rdf-syntax-ns#"
   xmlns:svg="http://www.w3.org/2000/svg"
   xmlns="http://www.w3.org/2000/svg"
   xmlns:sodipodi="http://sodipodi.sourceforge.net/DTD/sodipodi-0.dtd"
   xmlns:inkscape="http://www.inkscape.org/namespaces/inkscape"
   version="1.1"
   id="svg970"
   width="28.799999"
   height="28.799999"
   viewBox="0 0 28.799999 28.799999"
   sodipodi:docname="circle.svg"
   inkscape:version="1.0.2 (e86c870879, 2021-01-15, custom)">
  <metadata
     id="metadata976">
    <rdf:RDF>
      <cc:Work
         rdf:about="">
        <dc:format>image/svg+xml</dc:format>
        <dc:type
           rdf:resource="http://purl.org/dc/dcmitype/StillImage" />
        <dc:title></dc:title>
      </cc:Work>
    </rdf:RDF>
  </metadata>
  <defs
     id="defs974" />
  <sodipodi:namedview
     pagecolor="#ffffff"
     bordercolor="#666666"
     borderopacity="1"
     objecttolerance="10"
     gridtolerance="10"
     guidetolerance="10"
     inkscape:pageopacity="0"
     inkscape:pageshadow="2"
     inkscape:window-width="1516"
     inkscape:window-height="921"
     id="namedview972"
     showgrid="false"
     inkscape:zoom="16"
     inkscape:cx="9.7191178"
     inkscape:cy="19.379241"
     inkscape:window-x="214"
     inkscape:window-y="79"
     inkscape:window-maximized="0"
     inkscape:current-layer="g1042" />
  <g
     inkscape:groupmode="layer"
     inkscape:label="Image"
     id="g978"
     transform="translate(0.04359186,-0.14311412)">
    <g
       id="g1042"
       transform="translate(-0.04359186,0.14311412)">
      <path
         style="fill:#b3b3b3;stroke-width:0.32;fill-opacity:0"
         d="M 0,14.399999 V 0 h 14.399999 14.4 v 14.399999 14.4 h -14.4 H 0 Z"
         id="path1056" />
      <path
         style="fill:#aaaaaa;stroke-width:0.32;fill-opacity:0"
         d="M 11.2,25.638009 C 9.426353,25.055454 7.1357345,23.667683 6.0331064,22.507647 c -0.6417914,-0.675206 -1.5777914,-2.019648 -2.08,-2.987648 -0.834421,-1.608334 -0.9131065,-2.049542 -0.9131065,-5.12 0,-3.153573 0.062171,-3.477957 1.0119552,-5.2799993 1.2199081,-2.3145526 2.8661048,-3.941494 5.2280446,-5.1668933 1.6083343,-0.834421 2.0495423,-0.9131065 5.1199993,-0.9131065 3.070458,0 3.511666,0.078685 5.12,0.9131065 2.36194,1.2253993 4.008137,2.8523407 5.228045,5.1668933 0.949784,1.8020423 1.011955,2.1264263 1.011955,5.2799993 0,3.153574 -0.06217,3.477958 -1.011955,5.28 -1.227082,2.328163 -2.881819,3.956773 -5.228045,5.145498 -1.469313,0.744434 -2.235669,0.90687 -4.64,0.983492 C 13.296,25.859468 11.64,25.782527 11.2,25.638009 Z"
         id="path1054" />
      <path
         style="fill:#828282;stroke-width:0.32;fill-opacity:0.02534441"
         d="M 10.830138,25.172294 C 8.9472208,24.470291 6.8526391,23.13002 5.9360011,22.040657 5.4677022,21.484116 4.6965253,20.293292 4.2222744,19.394382 3.4444264,17.920024 3.3599999,17.431017 3.3599999,14.399999 c 0,-3.215978 0.046746,-3.44621 1.090591,-5.3712691 C 5.6860123,6.750363 6.9593271,5.5111748 9.3718125,4.2394047 10.884544,3.4419503 11.353113,3.3599999 14.399999,3.3599999 c 3.046887,0 3.515456,0.08195 5.028188,0.8794048 2.412485,1.2717701 3.6858,2.5109583 4.921221,4.7893252 1.043845,1.9250591 1.090591,2.1552911 1.090591,5.3712691 0,3.215979 -0.04675,3.446211 -1.090591,5.37127 -1.242474,2.291373 -2.528336,3.537182 -4.921221,4.76793 -1.369498,0.704383 -2.183853,0.876921 -4.548188,0.963631 -1.889338,0.06929 -3.282408,-0.04441 -4.049861,-0.330536 z"
         id="path1052" />
      <path
         style="fill:#7c7c7c;stroke-width:0.32;fill-opacity:0"
         d="M 10.961159,25.151355 C 8.5711357,24.371911 6.3918251,22.728946 5.1030651,20.734984 3.6138716,18.430912 3.0723619,16.262012 3.2759352,13.416809 3.564764,9.3800461 5.797091,6.0914327 9.4739187,4.2860808 11.152296,3.4619842 11.694779,3.3599999 14.399999,3.3599999 c 2.705221,0 3.247704,0.1019843 4.926081,0.9260809 2.392851,1.1749088 4.012929,2.7949874 5.187838,5.1878379 0.824097,1.6783773 0.926081,2.2208603 0.926081,4.9260803 0,2.705221 -0.101984,3.247704 -0.926081,4.926081 -1.171092,2.385077 -2.795597,4.014116 -5.1532,5.167584 -1.476602,0.722434 -2.376751,0.925568 -4.446081,1.003334 -1.603758,0.06027 -3.113572,-0.07173 -3.953478,-0.345643 z"
         id="path1050" />
      <path
         style="fill:#636363;stroke-width:0.32;fill-opacity:0"
         d="M 11.36,25.170475 C 7.8698685,24.011546 5.7067332,22.144654 4.2567237,19.039999 c -0.7620025,-1.631544 -0.8965008,-2.328645 -0.8952384,-4.64 0.00125,-2.30656 0.138768,-3.017551 0.9046624,-4.6775769 1.1240025,-2.4362032 2.9987144,-4.3014728 5.493852,-5.4661822 1.6297883,-0.7607719 2.3311323,-0.89624 4.6399993,-0.89624 2.308868,0 3.010212,0.1354681 4.64,0.89624 2.495138,1.1647094 4.36985,3.029979 5.493852,5.4661822 0.76653,1.6614039 0.903177,2.3691029 0.903177,4.6775769 0,2.308475 -0.136647,3.016174 -0.903177,4.677578 -1.76082,3.816465 -5.360985,6.212097 -9.636349,6.412248 -1.313373,0.06149 -2.792822,-0.07207 -3.537502,-0.31935 z"
         id="path1048" />
      <path
         style="fill:#444444;stroke-width:0.32;fill-opacity:0"
         d="m 10.830138,24.852294 c -3.1683562,-1.18125 -4.8045289,-2.62772 -6.3935874,-5.652295 -0.6559373,-1.248495 -0.7565507,-1.886844 -0.7565507,-4.8 0,-3.217619 0.046331,-3.445447 1.0933484,-5.3764432 C 5.9877371,6.7838794 6.984473,5.8196321 9.4056173,4.5422744 10.879975,3.7644264 11.368982,3.6799999 14.399999,3.6799999 c 3.031018,0 3.520025,0.084427 4.994383,0.8622745 2.421144,1.2773577 3.41788,2.241605 4.632269,4.4812814 1.047017,1.9309962 1.093348,2.1588242 1.093348,5.3764432 0,3.031018 -0.08443,3.520025 -0.862274,4.994383 -1.280789,2.427646 -2.245149,3.42138 -4.481282,4.617776 -1.790088,0.95775 -2.339737,1.089938 -4.896444,1.177575 -1.874761,0.06426 -3.288329,-0.05352 -4.049861,-0.337439 z"
         id="path1046" />
      <path
         style="fill:#1b1b1b;fill-opacity:0.01;stroke-width:0.373551"
         d="M 8.2881989,24.710097 C 5.4072071,23.26229 4.3472033,22.133019 2.8633489,18.930748 2.0748812,17.229176 1.9098137,16.31767 1.9068011,13.648667 1.9034839,10.694832 2.0153006,10.197861 3.2339944,7.7508423 4.6752957,4.8568485 5.7994941,3.7920609 8.9873769,2.30151 10.677648,1.5111937 11.586939,1.3443027 14.202626,1.3443027 c 2.61569,0 3.52498,0.166891 5.215251,0.9572073 3.187883,1.4905509 4.312081,2.5553385 5.753383,5.4493323 1.221243,2.4521367 1.330834,2.9413777 1.330834,5.9411197 0,2.999743 -0.109589,3.488984 -1.330834,5.94112 -1.441302,2.893994 -2.5655,3.958782 -5.753383,5.449332 -1.693928,0.792027 -2.601339,0.957839 -5.258351,0.960865 -2.940564,0.0033 -3.435302,-0.108995 -5.8713271,-1.333182 z"
         id="path1044" />
    </g>
  </g>
</svg>
